<svg xmlns="http://www.w3.org/2000/svg" viewBox="0 0 100 100">
  <rect width="100" height="100" rx="20" fill="#1e3a8a"/>
  <g transform="translate(18, 20)">
    <!-- Car shape -->
    <path d="M60,30 C60,28.35 58.65,27 57,27 L52.5,27 L48.45,18.9 C47.49,16.98 45.57,15.75 43.38,15.75 L21.63,15.75 C19.44,15.75 17.52,16.98 16.56,18.9 L12.5,27 L8,27 C6.35,27 5,28.35 5,30 L5,45 C5,46.65 6.35,48 8,48 L8,48 C8,51.3 10.7,54 14,54 C17.3,54 20,51.3 20,48 L45,48 C45,51.3 47.7,54 51,54 C54.3,54 57,51.3 57,48 L57,48 C58.65,48 60,46.65 60,45 L60,30 Z" fill="#FFF"/>
    <!-- Wheels -->
    <circle cx="14" cy="48" r="6" fill="#1e3a8a"/>
    <circle cx="51" cy="48" r="6" fill="#1e3a8a"/>
    <circle cx="14" cy="48" r="2" fill="#FFF"/>
    <circle cx="51" cy="48" r="2" fill="#FFF"/>
    <!-- Windows -->
    <path d="M23,27 L41,27 L45,35 L19,35 L23,27 Z" fill="#1e3a8a"/>
    <!-- Price Tag -->
    <rect x="28" y="5" width="24" height="16" rx="3" fill="#22c55e"/>
    <text x="32" y="17" font-family="Arial" font-size="12" font-weight="bold" fill="white">MAD</text>
  </g>
</svg>